<?xml version="1.0" encoding="UTF-8"?>
<svg xmlns="http://www.w3.org/2000/svg" viewBox="0 0 512 512">
  <g id="Layer_1">
    <path d="M414.63,353.61c0,87.47-72.8,158.39-162.61,158.39s-162.61-70.91-162.61-158.39,64.87-94.84,154.68-94.84,170.54,7.36,170.54,94.84Z" style="fill: #edb728;"/>
    <polygon points="393.43 351 393.43 11.57 270 73.29 270 325.46 393.43 351" style="fill: #edb728;"/>
    <polygon points="110.57 348.43 110.57 9 234 70.71 234 322.89 110.57 348.43" style="fill: #edb728;"/>
  </g>
  <g id="Layer_5">
    <g>
      <g>
        <rect x="42.19" y="433.78" width="189" height="45" rx="22.5" ry="22.5" transform="translate(-139.42 68.16) rotate(-18.75)" style="fill: #eff1f3;"/>
        <rect x="19.69" y="357.28" width="189" height="45" rx="22.5" ry="22.5" style="fill: #eff1f3;"/>
      </g>
      <g>
        <rect x="280.04" y="433.18" width="189" height="45" rx="22.5" ry="22.5" transform="translate(582.71 1007.58) rotate(-161.25)" style="fill: #eff1f3;"/>
        <rect x="302.54" y="356.68" width="189" height="45" rx="22.5" ry="22.5" transform="translate(794.07 758.36) rotate(-180)" style="fill: #eff1f3;"/>
      </g>
    </g>
  </g>
</svg>